<svg width="223" height="33" viewBox="0 0 223 33" fill="none" xmlns="http://www.w3.org/2000/svg">
<path d="M1.49364 25.2937C1.31235 25.2937 1.1084 25.1464 0.881787 24.8518C0.655175 24.5572 0.553199 24.2739 0.575861 24.002C0.598522 23.6394 0.700497 23.1182 0.881787 22.4384C1.06308 21.7585 1.26703 21.0673 1.49364 20.3649C1.72025 19.6624 1.9242 19.1072 2.10549 18.6993C2.19614 18.3367 2.27545 18.0194 2.34343 17.7475C2.43408 17.4529 2.49073 17.2603 2.51339 17.1696C2.58138 17.079 2.68335 16.841 2.81932 16.4558C2.97795 16.0706 3.10258 15.6966 3.19323 15.3341C3.23855 15.1528 3.3292 14.8129 3.46516 14.3143C3.62379 13.7931 3.80508 13.1926 4.00903 12.5128C4.23564 11.8329 4.45092 11.1644 4.65487 10.5072C4.88149 9.85006 5.07411 9.2722 5.23273 8.77365C5.39136 8.27511 5.49334 7.94652 5.53866 7.78789C5.71995 7.51596 5.85592 7.25536 5.94656 7.00608C6.03721 6.75681 6.09386 6.58685 6.11652 6.49621C6.25249 6.40556 6.3318 6.29226 6.35446 6.15629C6.37712 5.99766 6.38846 5.87302 6.38846 5.78238C6.38846 5.66907 6.42245 5.57843 6.49043 5.51045C6.58108 5.44246 6.6264 5.36315 6.6264 5.2725C6.71704 5.20452 6.77369 5.10254 6.79636 4.96658C6.81902 4.80795 6.887 4.67198 7.00031 4.55867L7.17027 3.98082L9.17578 3.94682C9.13046 4.21876 9.06248 4.55868 8.97183 4.96658C8.88119 5.35182 8.6659 5.87302 8.32599 6.5302C8.21268 6.98342 8.07671 7.39132 7.91809 7.7539C7.78212 8.11648 7.72547 8.35442 7.74813 8.46773C7.7028 8.51305 7.60083 8.73966 7.4422 9.14757C7.30623 9.55547 7.13627 10.054 6.93232 10.6432C6.75103 11.2324 6.55841 11.8216 6.35446 12.4108C6.17317 13 6.00322 13.5212 5.84459 13.9744C5.70862 14.405 5.61797 14.6769 5.57265 14.7902C5.39136 15.1528 5.18741 15.6853 4.9608 16.3878C4.73419 17.0903 4.39427 18.0421 3.94105 19.2431C3.75976 19.6057 3.53315 20.1496 3.26121 20.8747C3.01194 21.5999 2.80799 22.2571 2.64936 22.8463C2.40009 23.73 2.2188 24.3419 2.10549 24.6818C2.01485 25.0444 1.93553 25.237 1.86755 25.2597C1.79956 25.305 1.67493 25.3163 1.49364 25.2937ZM1.76557 5.03456C1.13106 5.05722 0.655175 5.02323 0.337918 4.93259C0.043323 4.84194 -0.0586524 4.61533 0.0319922 4.25275C0.0999759 3.98081 0.247274 3.77686 0.473885 3.6409C0.700497 3.50493 1.02908 3.40295 1.45965 3.33497C1.70892 3.28965 2.02618 3.233 2.41142 3.16501C2.81932 3.09703 3.20456 3.02905 3.56714 2.96106C4.31496 2.87042 4.92681 2.7911 5.40269 2.72312C5.90124 2.65514 6.41112 2.59848 6.93232 2.55316C7.45353 2.50784 8.11071 2.46252 8.90385 2.41719C9.56102 2.37187 10.1162 2.33788 10.5694 2.31522C11.0453 2.2699 11.2833 2.24724 11.2833 2.24724C11.3513 2.24724 11.5892 2.2699 11.9971 2.31522C12.405 2.36054 12.8469 2.41719 13.3228 2.48518C13.7987 2.55316 14.1499 2.63248 14.3765 2.72312C14.8977 2.83643 15.2716 2.99505 15.4983 3.199C15.7475 3.40296 15.9175 3.69755 16.0081 4.08279C16.0761 4.35473 16.0761 4.52468 16.0081 4.59267C15.9401 4.63799 15.8155 4.70597 15.6342 4.79662C15.113 4.95525 14.7278 5.03456 14.4785 5.03456C14.2292 5.03456 13.946 4.97791 13.6287 4.8646C13.5154 4.7513 13.3794 4.64932 13.2208 4.55867C13.0848 4.46803 12.8356 4.40005 12.473 4.35472C12.1331 4.28674 11.5892 4.23009 10.8414 4.18477C10.2069 4.25275 9.65167 4.28674 9.17578 4.28674C8.6999 4.28674 8.46195 4.34339 8.46195 4.4567L6.45644 4.55867L4.79084 4.72863C4.56423 4.7513 4.24697 4.78529 3.83907 4.83061C3.43117 4.85327 3.0346 4.88726 2.64936 4.93259C2.26412 4.95525 1.96952 4.98924 1.76557 5.03456Z" fill="white"/>
<path d="M13.527 22.7103C13.3457 22.529 13.2097 22.3024 13.1191 22.0305C13.0511 21.7585 13.0284 21.4866 13.0511 21.2146C13.0738 20.9427 13.1304 20.7161 13.2211 20.5348C13.2211 20.3535 13.2437 20.2176 13.2891 20.1269C13.357 20.0136 13.3797 19.9116 13.357 19.821C13.3344 19.7303 13.357 19.5717 13.425 19.3451C13.493 19.1185 13.561 18.9032 13.629 18.6993C13.7876 18.3367 13.9576 17.9061 14.1388 17.4076C14.3201 16.8864 14.4901 16.3765 14.6487 15.8779C14.8074 15.3794 14.9433 14.9488 15.0566 14.5862C15.1699 14.2237 15.2379 13.9971 15.2606 13.9064C15.2606 13.6345 15.4419 13.4872 15.8044 13.4645C16.0764 13.3739 16.2803 13.3739 16.4163 13.4645C16.5523 13.5325 16.7336 13.7478 16.9602 14.1104C17.1415 14.2917 17.2094 14.5636 17.1641 14.9262C17.1188 15.2887 16.9715 15.742 16.7222 16.2858C16.6316 16.4671 16.5183 16.7277 16.3823 17.0676C16.269 17.4076 16.1897 17.7135 16.1444 17.9854C16.0537 18.1667 15.9404 18.4273 15.8044 18.7672C15.6911 19.0845 15.5892 19.3904 15.4985 19.685C15.4532 19.7983 15.4079 19.9683 15.3625 20.1949C15.3172 20.3988 15.2606 20.6255 15.1926 20.8747C15.1246 21.1013 15.034 21.3053 14.9207 21.4866C14.7167 22.4157 14.5241 22.9596 14.3428 23.1182C14.1842 23.2768 13.9122 23.1408 13.527 22.7103ZM16.8242 8.90962C16.7109 8.79632 16.6089 8.63769 16.5183 8.43374C16.4276 8.20713 16.371 8.00318 16.3483 7.82189C16.3257 7.61793 16.3483 7.51596 16.4163 7.51596C16.5976 7.4933 16.8129 7.30068 17.0621 6.9381C17.3114 6.57552 17.4134 6.25826 17.3681 5.98633C17.3681 5.89569 17.4021 5.81637 17.47 5.74839C17.538 5.65774 17.6173 5.60109 17.708 5.57843C17.9799 5.39714 18.2405 5.37448 18.4898 5.51045C18.7617 5.62375 19.011 5.86169 19.2376 6.22427C19.4416 6.65484 19.4982 7.01741 19.4076 7.31201C19.3169 7.58394 19.0677 7.96918 18.6598 8.46773C18.3198 8.92095 18.0026 9.17023 17.708 9.21555C17.436 9.26087 17.1415 9.1589 16.8242 8.90962Z" fill="white"/>
<path d="M31.5264 22.2344C31.0732 22.2344 30.6993 22.1438 30.4047 21.9625C30.1101 21.7585 29.8608 21.4299 29.6569 20.9767C29.5662 20.6594 29.4869 20.3082 29.4189 19.923C29.3736 19.5151 29.351 19.1411 29.351 18.8012C29.351 18.4387 29.385 18.2007 29.4529 18.0874C29.5436 17.9968 29.5776 17.8381 29.5549 17.6115C29.5549 17.3622 29.5549 17.1016 29.5549 16.8297C29.5323 16.3765 29.4189 16.1272 29.215 16.0819C29.0337 16.0139 28.7618 16.0819 28.3992 16.2858C27.9913 16.5351 27.4588 16.875 26.8016 17.3056C26.1444 17.7135 25.4532 18.1667 24.7281 18.6653C24.0256 19.1638 23.3571 19.685 22.7226 20.2289C22.224 20.7728 21.9181 21.192 21.8048 21.4866C21.7141 21.7585 21.5782 21.8945 21.3969 21.8945C21.2156 21.9851 21.057 21.9965 20.921 21.9285C20.8077 21.8378 20.6377 21.7019 20.4111 21.5206C20.2525 21.3393 20.0939 21.1693 19.9352 21.0107C19.7766 20.8294 19.6746 20.6934 19.6293 20.6028C19.6293 20.4895 19.6633 20.2515 19.7313 19.889C19.7993 19.5264 19.8786 19.1638 19.9692 18.8012C20.0825 18.4387 20.1619 18.2007 20.2072 18.0874C20.3205 18.0874 20.4111 17.9741 20.4791 17.7475C20.5698 17.5209 20.7057 17.2716 20.887 16.9997C20.9323 16.7277 21.0456 16.3652 21.2269 15.9119C21.4309 15.436 21.6122 15.0168 21.7708 14.6542C22.0881 14.1104 22.3033 13.6571 22.4166 13.2946C22.5526 12.932 22.6433 12.4788 22.6886 11.9349C22.6659 11.8442 22.6886 11.7649 22.7566 11.6969C22.8245 11.6063 22.9039 11.561 22.9945 11.561C23.1758 11.3797 23.3911 11.3344 23.6403 11.425C23.8896 11.493 24.1162 11.663 24.3202 11.9349C24.7281 12.4788 24.8867 13.0453 24.7961 13.6345C24.7281 14.201 24.3655 15.0168 23.7083 16.0819C23.5497 16.4445 23.4251 16.7277 23.3344 16.9317C23.2664 17.113 23.2324 17.2603 23.2324 17.3736C23.2324 17.3736 23.3457 17.2943 23.5724 17.1356C23.8216 16.977 24.0936 16.7957 24.3882 16.5918C24.7054 16.3652 24.9547 16.1952 25.136 16.0819C25.2493 15.9686 25.5099 15.7646 25.9178 15.47C26.3257 15.1754 26.7563 14.8922 27.2095 14.6202C27.6854 14.3256 28.0366 14.1557 28.2632 14.1104C28.4445 14.0197 28.6371 13.9404 28.8411 13.8724C29.045 13.7818 29.1923 13.7365 29.283 13.7365C29.4643 13.7365 29.6909 13.8384 29.9628 14.0424C30.2574 14.2237 30.5293 14.4503 30.7786 14.7222C31.0279 14.9715 31.1752 15.1868 31.2205 15.3681C31.2205 15.4587 31.2205 15.5493 31.2205 15.64C31.2432 15.7306 31.2658 15.8213 31.2885 15.9119C31.3791 16.2065 31.4245 16.6031 31.4245 17.1016C31.4471 17.6002 31.4358 18.0534 31.3905 18.4613C31.3451 18.8692 31.2658 19.1072 31.1525 19.1751C31.1525 19.1751 31.1525 19.2091 31.1525 19.2771C31.1752 19.3224 31.2318 19.3451 31.3225 19.3451C31.3225 19.4357 31.3225 19.4924 31.3225 19.5151C31.2092 19.5151 31.1639 19.617 31.1865 19.821C31.2092 20.0023 31.2772 20.2062 31.3905 20.4328C31.5264 20.6594 31.6624 20.8407 31.7984 20.9767C32.0703 21.2486 32.1836 21.5092 32.1383 21.7585C32.093 21.9851 31.889 22.1438 31.5264 22.2344Z" fill="white"/>
<path d="M34.2524 31.99C33.7539 32.0807 33.414 32.092 33.2327 32.024C33.0514 31.956 32.8021 31.8427 32.4848 31.6841C32.2356 31.5028 32.043 31.3669 31.907 31.2762C31.771 31.1856 31.703 31.0949 31.703 31.0043C31.703 30.9363 31.7257 30.857 31.771 30.7663C31.8163 30.6984 31.8957 30.6304 32.009 30.5624C32.1449 30.5171 32.3262 30.4944 32.5528 30.4944C32.7115 30.585 32.9721 30.6304 33.3346 30.6304C33.7199 30.6304 33.9578 30.585 34.0485 30.4944C34.0485 30.4944 34.1504 30.4264 34.3544 30.2905C34.581 30.1771 34.8756 30.0865 35.2382 30.0185C35.9407 29.6786 36.5639 29.248 37.1077 28.7268C37.6516 28.2056 38.1728 27.5258 38.6713 26.6873C38.8753 26.3701 39.0906 25.9962 39.3172 25.5656C39.5438 25.1577 39.7024 24.7498 39.7931 24.3419C39.9744 23.8887 40.1783 23.2768 40.4049 22.5063C40.6542 21.7359 40.8695 20.9767 41.0508 20.2289C41.2321 19.4584 41.334 18.8805 41.3567 18.4953C41.4927 17.2263 41.708 16.0592 42.0025 14.9942C42.3198 13.9064 42.5917 12.694 42.8183 11.357C42.9543 11.0398 43.0563 10.8585 43.1243 10.8132C43.1923 10.7452 43.3396 10.7112 43.5662 10.7112C43.8154 10.7112 43.9967 10.7338 44.11 10.7792C44.246 10.8018 44.3933 10.9378 44.5519 11.1871C44.7785 11.6176 44.8579 12.1275 44.7899 12.7167C44.7445 13.2832 44.5746 13.7818 44.28 14.2123C44.0534 14.5296 43.8494 15.0281 43.6681 15.708C43.5095 16.3652 43.3509 17.1923 43.1923 18.1894C43.0789 18.6879 42.9543 19.2771 42.8183 19.957C42.705 20.6141 42.5804 21.3506 42.4444 22.1664C42.3538 22.393 42.2292 22.7443 42.0705 23.2202C41.9119 23.6734 41.8099 24.036 41.7646 24.3079C41.7419 24.3985 41.674 24.5798 41.5607 24.8518C41.4473 25.1237 41.334 25.3843 41.2207 25.6336C41.1074 25.9055 41.0281 26.0868 40.9828 26.1774C40.099 28.013 39.0906 29.418 37.9575 30.3924C36.8245 31.3669 35.5894 31.8994 34.2524 31.99ZM36.8358 22.1324C36.5865 22.1324 36.3259 21.9965 36.054 21.7245C35.8047 21.4526 35.6348 21.2373 35.5441 21.0787C35.4535 20.8521 35.3402 20.6368 35.2042 20.4328C35.0682 20.2289 34.9662 19.9796 34.8983 19.685C34.8529 19.3904 34.8756 19.0278 34.9662 18.5973C35.0569 18.3027 35.1815 17.8835 35.3402 17.3396C35.5214 16.7731 35.7141 16.1612 35.918 15.504C36.1446 14.8469 36.3712 14.201 36.5979 13.5665C36.8471 12.9093 37.0737 12.3315 37.2777 11.8329C37.4816 11.3117 37.6629 10.9378 37.8216 10.7112C37.9575 10.5299 38.1048 10.4166 38.2634 10.3713C38.4447 10.3259 38.626 10.3486 38.8073 10.4393C38.9886 10.5072 39.1472 10.6545 39.2832 10.8811C39.5325 11.1984 39.6344 11.4703 39.5891 11.6969C39.5438 11.9236 39.3399 12.3655 38.9773 13.0226C38.8866 13.2719 38.7733 13.5438 38.6374 13.8384C38.5014 14.1104 38.4334 14.2917 38.4334 14.3823C38.4107 14.4276 38.3654 14.5863 38.2974 14.8582C38.2521 15.1075 38.1955 15.3454 38.1275 15.572C38.0595 15.7986 37.9915 15.9119 37.9235 15.9119C37.8329 16.0026 37.7309 16.2632 37.6176 16.6937C37.5043 17.1016 37.4023 17.5662 37.3117 18.0874C37.221 18.586 37.1644 19.0278 37.1417 19.4131C37.1191 19.7757 37.1531 19.957 37.2437 19.957C37.9462 19.957 38.6714 19.685 39.4192 19.1411C40.1897 18.5973 40.9601 17.8041 41.7306 16.7617L42.3085 19.1751C41.9912 19.3338 41.6966 19.5037 41.4247 19.685C41.1527 19.8436 40.9035 20.0363 40.6769 20.2629C40.6089 20.3535 40.4503 20.4782 40.201 20.6368C39.9517 20.7954 39.7024 20.9427 39.4532 21.0787C39.2265 21.192 39.0793 21.2486 39.0113 21.2486C39.0113 21.2486 38.9773 21.26 38.9093 21.2826C38.864 21.2826 38.8413 21.328 38.8413 21.4186C38.8413 21.4639 38.694 21.5546 38.3994 21.6905C38.1048 21.8038 37.7989 21.9058 37.4816 21.9965C37.1644 22.0871 36.9491 22.1324 36.8358 22.1324Z" fill="white"/>
<path d="M59.9165 24.9198C59.3726 24.9877 58.9534 25.0217 58.6588 25.0217C58.3868 25.0217 58.1262 24.9877 57.877 24.9198C57.6504 24.8518 57.3444 24.7611 56.9592 24.6478C56.6419 24.4439 56.37 24.2512 56.1434 24.07C55.9394 23.8887 55.7808 23.7527 55.6675 23.6621C55.6675 23.5487 55.6335 23.4581 55.5655 23.3901C55.5202 23.3221 55.4975 23.2881 55.4975 23.2881C55.4069 23.2881 55.3276 23.0955 55.2596 22.7103C55.2143 22.3024 55.1916 21.8265 55.1916 21.2826C55.2143 20.7388 55.2483 20.2289 55.2936 19.753C55.3616 19.2771 55.4409 18.9599 55.5315 18.8012C55.5315 18.6879 55.5542 18.552 55.5995 18.3933C55.6675 18.212 55.7015 18.0647 55.7015 17.9514C55.7015 17.5662 55.7581 17.3736 55.8715 17.3736C55.8715 17.3736 55.8941 17.3736 55.9394 17.3736C56.0074 17.3509 56.0414 17.3056 56.0414 17.2376C56.0414 17.1016 56.0867 16.9204 56.1774 16.6937C56.268 16.4445 56.336 16.2179 56.3813 16.0139C56.4946 15.81 56.6306 15.4587 56.7892 14.9602C56.9705 14.4616 57.1405 13.9971 57.2991 13.5665C57.4124 13.068 57.571 12.5694 57.775 12.0709C57.9789 11.5723 58.1262 11.1757 58.2169 10.8811C58.5341 10.3373 58.6928 9.92938 58.6928 9.65744C58.7381 9.49881 58.8854 9.1589 59.1347 8.63769C59.4066 8.11648 59.7125 7.50463 60.0524 6.80213C60.415 6.09964 60.7776 5.38581 61.1402 4.66065C61.5254 3.93549 61.8653 3.30098 62.1599 2.75711C62.4772 2.21324 62.7151 1.83933 62.8738 1.63538C63.2363 1.18216 63.5083 0.898894 63.6896 0.785588C63.8709 0.672282 64.0635 0.615629 64.2674 0.615629C64.3807 0.660952 64.5167 0.762927 64.6753 0.921555C64.8566 1.08018 65.0266 1.25014 65.1852 1.43143C65.3438 1.61272 65.4345 1.77135 65.4571 1.90732C65.4571 1.95264 65.3665 2.1226 65.1852 2.41719C65.0039 2.71179 64.7773 3.04038 64.5054 3.40296C64.2334 3.76553 63.9728 4.08279 63.7236 4.35472C63.6556 4.44537 63.6102 4.52468 63.5876 4.59267C63.5876 4.66065 63.5876 4.69464 63.5876 4.69464C63.5876 4.69464 63.5083 4.83061 63.3496 5.10254C63.2137 5.35182 63.0437 5.66907 62.8398 6.05431C62.6358 6.41689 62.4545 6.76814 62.2959 7.10806C62.1373 7.44798 62.0466 7.69725 62.024 7.85588C61.888 8.01451 61.6954 8.34309 61.4461 8.84164C61.2195 9.31752 60.9929 9.83873 60.7663 10.4053C60.5397 10.9491 60.3357 11.425 60.1544 11.8329C59.9731 12.2408 59.8598 12.4674 59.8145 12.5128C59.8145 12.6261 59.8032 12.7394 59.7805 12.8527C59.7805 12.9433 59.7352 13.0453 59.6445 13.1586C59.5766 13.3172 59.4519 13.6798 59.2706 14.2463C59.112 14.7902 58.8854 15.3567 58.5908 15.9459C58.4322 16.6258 58.2396 17.2263 58.0129 17.7475C57.7863 18.2687 57.6164 18.5859 57.5031 18.6993C57.4124 18.9259 57.3671 19.0618 57.3671 19.1072C57.3671 19.1298 57.4124 19.1298 57.5031 19.1072C57.6164 18.9939 57.673 18.9825 57.673 19.0732C57.673 19.1411 57.6164 19.2658 57.5031 19.4471C57.4124 19.6737 57.3331 19.9343 57.2651 20.2289C57.1971 20.5235 57.1631 20.8294 57.1631 21.1467C57.2085 21.9171 57.3218 22.427 57.5031 22.6763C57.6843 22.9256 58.0583 23.0389 58.6248 23.0162C59.3953 22.9709 60.1091 22.8916 60.7663 22.7783C61.4234 22.665 61.956 22.563 62.3639 22.4723C63.1117 22.2231 63.7575 22.1098 64.3014 22.1324C64.8679 22.1324 65.2645 22.2797 65.4911 22.5743C65.6271 22.7783 65.7064 22.9369 65.7291 23.0502C65.7517 23.1635 65.7631 23.2768 65.7631 23.3901C65.6951 23.4808 65.4231 23.6167 64.9473 23.798C64.494 23.9566 63.9502 24.1153 63.3157 24.2739C62.6811 24.4552 62.0466 24.6025 61.4121 24.7158C60.8003 24.8291 60.3017 24.8971 59.9165 24.9198Z" fill="white"/>
<path d="M72.35 23.9C71.3529 23.9 70.5371 23.5261 69.9026 22.7783C69.2681 22.0078 68.9622 21.056 68.9848 19.923C69.0302 19.1072 69.1888 18.2347 69.4607 17.3056C69.7553 16.3538 70.1406 15.4474 70.6164 14.5862C71.0923 13.7025 71.6135 12.932 72.1801 12.2748C72.7466 11.6176 73.3358 11.1531 73.9476 10.8811C74.1743 10.7678 74.4122 10.6772 74.6615 10.6092C74.9334 10.5412 75.2053 10.5072 75.4773 10.5072C75.7265 10.5072 75.9872 10.5526 76.2591 10.6432C76.531 10.7112 76.7576 10.7905 76.9389 10.8811C77.3242 11.0398 77.6188 11.2324 77.8227 11.459C78.0267 11.6856 78.2079 12.0369 78.3666 12.5128C78.4346 12.9433 78.4686 13.2492 78.4686 13.4305C78.4686 13.6118 78.4119 13.8838 78.2986 14.2463C78.0267 15.0621 77.6754 15.7646 77.2449 16.3538C76.8143 16.943 76.2364 17.4416 75.5113 17.8495C75.33 17.9628 75.1147 18.0534 74.8654 18.1214C74.6388 18.1667 74.4009 18.1894 74.1516 18.1894C73.6984 18.1894 73.2565 18.1101 72.8259 17.9514C72.418 17.7701 72.0894 17.5095 71.8401 17.1696L71.6022 16.8977L71.5002 17.1696C71.2736 17.7815 71.0923 18.348 70.9564 18.8692C70.8431 19.3904 70.7864 19.8663 70.7864 20.2969C70.7864 20.5688 70.8091 20.8294 70.8544 21.0787C70.9224 21.328 71.013 21.5432 71.1263 21.7245C71.217 21.8605 71.3643 21.9625 71.5682 22.0305C71.7948 22.0758 72.0328 22.0984 72.282 22.0984C72.4407 22.0984 72.5993 22.0984 72.7579 22.0984C72.9392 22.0758 73.1092 22.0305 73.2678 21.9625C73.653 21.8265 73.959 21.6792 74.1856 21.5206C74.4349 21.3619 74.6841 21.192 74.9334 21.0107L75.0694 20.9427H75.0354C75.3073 20.8067 75.5453 20.6708 75.7492 20.5348C75.9758 20.3988 76.0891 20.3309 76.0891 20.3309C76.1798 20.3309 76.2704 20.2742 76.3611 20.1609C76.5424 20.0703 76.769 20.1042 77.0409 20.2629C77.3355 20.4215 77.4828 20.6255 77.4828 20.8747C77.4601 20.988 77.3582 21.1693 77.1769 21.4186C76.9956 21.6452 76.7916 21.8605 76.565 22.0644C76.3611 22.2684 76.1911 22.3817 76.0551 22.4044C76.0325 22.427 75.9532 22.4723 75.8172 22.5403C75.6812 22.5856 75.5906 22.631 75.5453 22.6763H75.5793C75.3753 22.9482 75.1713 23.0842 74.9674 23.0842H74.6955C74.6048 23.2428 74.3102 23.4241 73.8117 23.6281C73.3131 23.8094 72.8259 23.9 72.35 23.9ZM73.8797 16.4218C74.2876 16.4218 74.6388 16.3085 74.9334 16.0819C75.2507 15.8326 75.5226 15.5607 75.7492 15.2661C76.2024 14.6542 76.463 14.065 76.531 13.4985C76.6217 12.9093 76.5537 12.5014 76.3271 12.2748C76.1911 12.2068 76.0665 12.1728 75.9532 12.1728C75.8625 12.1502 75.6699 12.1842 75.3753 12.2748C75.1713 12.3201 74.8881 12.4901 74.5255 12.7847C74.1629 13.0793 73.8003 13.4079 73.4378 13.7704C73.0978 14.133 72.8372 14.439 72.656 14.6882L72.2141 15.4021C72.3954 15.3341 72.5653 15.3001 72.7239 15.3001C72.9052 15.2774 73.0072 15.2887 73.0299 15.3341C73.0299 15.538 73.0639 15.7306 73.1318 15.9119C73.2225 16.0706 73.3245 16.1952 73.4378 16.2858C73.5737 16.3765 73.721 16.4218 73.8797 16.4218Z" fill="white"/>
<path d="M82.2483 22.6763C81.9763 22.7216 81.6817 22.6763 81.3645 22.5403C81.0472 22.4044 80.764 22.2117 80.5147 21.9625C80.2881 21.7132 80.1408 21.4526 80.0728 21.1807C79.9822 20.7048 80.0388 20.1156 80.2428 19.4131C80.4694 18.6879 80.7866 17.9288 81.1945 17.1356C81.6251 16.3198 82.101 15.538 82.6222 14.7902C83.1661 14.0424 83.7213 13.3965 84.2878 12.8527C84.877 12.2861 85.4208 11.9009 85.9194 11.6969C86.1687 11.5383 86.3613 11.4363 86.4973 11.391C86.6559 11.323 86.8145 11.3117 86.9731 11.357C87.1544 11.4024 87.415 11.5157 87.7549 11.6969C88.0722 11.7876 88.3101 11.8896 88.4688 12.0029C88.6274 12.1162 88.8314 12.3428 89.0806 12.6827C89.2619 13.0226 89.3979 13.3625 89.4885 13.7025C89.5792 14.0424 89.6585 14.4276 89.7265 14.8582C89.9078 15.4247 89.9757 15.7986 89.9304 15.9799C89.8851 16.1385 89.8171 16.2632 89.7265 16.3538C89.5452 16.5804 89.4999 16.6937 89.5905 16.6937C89.5905 16.6937 89.5792 16.7391 89.5565 16.8297C89.5565 16.8977 89.5112 17.011 89.4205 17.1696C89.2619 17.6682 89.1373 18.1894 89.0466 18.7332C88.9786 19.2545 88.99 19.685 89.0806 20.0249C89.2619 20.5235 89.5905 20.8181 90.0664 20.9087C90.5423 20.9994 91.0295 20.7954 91.528 20.2969C91.7773 20.1156 92.0153 19.957 92.2419 19.821C92.4685 19.6624 92.5818 19.6737 92.5818 19.855C92.5818 19.855 92.6158 19.889 92.6838 19.957C92.7517 20.0023 92.8311 20.0249 92.9217 20.0249C93.035 20.0249 93.103 20.0703 93.1256 20.1609C93.171 20.2515 93.171 20.3762 93.1256 20.5348C93.103 20.6708 93.035 20.8294 92.9217 21.0107C92.5818 21.3506 92.4118 21.5772 92.4118 21.6905C92.4118 21.6905 92.3665 21.7359 92.2759 21.8265C92.2079 21.8945 92.0832 22.0078 91.9019 22.1664C91.494 22.4157 90.9728 22.5403 90.3383 22.5403C89.7265 22.5403 89.2506 22.4157 88.9107 22.1664C88.5707 21.9171 88.2535 21.5772 87.9589 21.1467C87.687 20.7161 87.5057 20.3422 87.415 20.0249L87.2451 19.685L86.2593 20.3309C86.01 20.5801 85.7381 20.8181 85.4435 21.0447C85.1716 21.2713 84.9903 21.4299 84.8996 21.5206C84.8316 21.6112 84.7523 21.6905 84.6617 21.7585C84.5937 21.8265 84.5144 21.8605 84.4238 21.8605C84.3331 21.8605 84.2538 21.8605 84.1858 21.8605C84.1178 21.8605 84.0838 21.8605 84.0838 21.8605C84.0838 21.9511 83.9705 22.0644 83.7439 22.2004C83.54 22.3364 83.2907 22.4497 82.9961 22.5403C82.7242 22.631 82.4749 22.6763 82.2483 22.6763ZM81.9084 20.8407C82.0443 20.8407 82.2823 20.7388 82.6222 20.5348C82.9848 20.3082 83.3813 20.0476 83.8119 19.753C84.2651 19.4584 84.6617 19.1638 85.0016 18.8692C85.3642 18.5746 85.6135 18.348 85.7494 18.1894C85.8401 18.0987 85.9874 17.9514 86.1913 17.7475C86.3953 17.5209 86.5766 17.3283 86.7352 17.1696C87.2564 16.5804 87.619 15.9346 87.8229 15.2321C88.0269 14.5069 88.0042 13.9404 87.7549 13.5325C87.6643 13.2832 87.551 13.1473 87.415 13.1246C87.2791 13.1019 86.9958 13.1813 86.5652 13.3625C86.2933 13.5212 85.9534 13.8271 85.5455 14.2803C85.1602 14.7109 84.741 15.2208 84.2878 15.81C83.8572 16.3765 83.4493 16.9657 83.0641 17.5775C82.6788 18.1894 82.3616 18.7559 82.1123 19.2771C81.863 19.7983 81.7384 20.2062 81.7384 20.5008C81.7384 20.5915 81.7611 20.6708 81.8064 20.7388C81.8744 20.8067 81.9084 20.8407 81.9084 20.8407Z" fill="white"/>
<path d="M96.0203 27.1972C95.8616 27.1519 95.6917 27.0612 95.5104 26.9253C95.3291 26.812 95.2384 26.71 95.2384 26.6193C95.2611 26.4607 95.2951 26.3134 95.3404 26.1774C95.3857 26.0641 95.4197 25.9508 95.4424 25.8375C95.4877 25.6109 95.5104 25.339 95.5104 25.0217C95.5104 24.7271 95.5444 24.1606 95.6124 23.3221C95.6803 22.4157 95.737 21.6565 95.7823 21.0447C95.8503 20.4328 95.9183 19.889 95.9863 19.4131C96.0543 18.9145 96.1336 18.416 96.2242 17.9174C96.3375 17.4189 96.4735 16.8297 96.6321 16.1499C96.7454 15.3794 96.7454 14.9035 96.6321 14.7222C96.5415 14.5409 96.3715 14.439 96.1222 14.4163C95.6917 14.371 95.3064 14.303 94.9665 14.2123C94.6493 14.099 94.4453 13.9064 94.3547 13.6345C94.1281 13.4079 94.0714 13.2266 94.1847 13.0906C94.298 12.9546 94.5246 12.8527 94.8645 12.7847C95.2271 12.694 95.6124 12.66 96.0203 12.6827C96.4055 12.66 96.7001 12.6374 96.904 12.6147C97.1307 12.5694 97.3119 12.4561 97.4479 12.2748C97.5839 12.0709 97.7199 11.7309 97.8558 11.2551C97.9011 11.0511 97.9805 10.7678 98.0938 10.4053C98.2297 10.0427 98.343 9.7141 98.4337 9.4195C98.547 9.1249 98.6036 8.97761 98.6036 8.97761C98.8076 8.81898 98.9096 8.61503 98.9096 8.36576C98.9322 8.0485 99.0795 7.62927 99.3515 7.10806C99.646 6.56419 100.111 5.80504 100.745 4.83061C101.516 3.83352 102.207 3.05171 102.819 2.48518C103.453 1.91865 104.19 1.5674 105.028 1.43143C105.119 1.38611 105.323 1.36345 105.64 1.36345C105.957 1.36345 106.172 1.36345 106.286 1.36345C106.762 1.38611 107.09 1.47675 107.272 1.63538C107.453 1.79401 107.645 2.06595 107.849 2.45119C108.031 2.74578 108.053 3.15368 107.917 3.67489C107.804 4.17344 107.657 4.55867 107.475 4.83061C107.362 5.0119 107.192 5.21585 106.966 5.44246C106.762 5.66907 106.558 5.87302 106.354 6.05431C106.172 6.21294 106.036 6.29226 105.946 6.29226C105.833 6.29226 105.719 6.25826 105.606 6.19028C105.515 6.09964 105.425 6.04298 105.334 6.02032C105.13 5.92968 105.096 5.77105 105.232 5.54444C105.368 5.29516 105.515 5.05722 105.674 4.83061C105.901 4.49069 106.048 4.21876 106.116 4.01481C106.184 3.81086 106.206 3.62957 106.184 3.47094C106.161 3.31231 106.116 3.11969 106.048 2.89308L106.354 3.199C106.195 3.10836 106.014 3.07437 105.81 3.09703C105.606 3.11969 105.379 3.17634 105.13 3.26699C104.699 3.4936 104.348 3.74287 104.076 4.01481C103.804 4.26408 103.578 4.47936 103.396 4.66065C102.853 5.13653 102.411 5.7144 102.071 6.39423C101.731 7.07407 101.414 7.70858 101.119 8.29777C101.028 8.47906 100.87 8.81898 100.643 9.31752C100.439 9.79341 100.247 10.2466 100.065 10.6772C99.9067 11.0851 99.748 11.4477 99.5894 11.7649C99.4308 12.0595 99.3515 12.2408 99.3515 12.3088C99.2835 12.4674 99.3175 12.5467 99.4534 12.5467C99.6121 12.5467 99.918 12.5354 100.371 12.5128C101.482 12.3768 102.309 12.3428 102.853 12.4108C103.419 12.4561 103.748 12.66 103.838 13.0226C104.224 13.5665 104.167 13.9064 103.668 14.0424C103.193 14.1557 102.309 14.303 101.017 14.4843C100.654 14.5069 100.292 14.5296 99.9293 14.5523C99.5667 14.5523 99.3288 14.5636 99.2155 14.5862C99.1248 14.6089 99.0342 14.6429 98.9436 14.6882C98.8529 14.7335 98.7509 14.9602 98.6376 15.3681C98.615 15.6173 98.5696 15.9233 98.5017 16.2858C98.4563 16.6258 98.4223 16.9543 98.3997 17.2716C98.309 17.5435 98.2411 17.8268 98.1957 18.1214C98.1731 18.416 98.1051 18.6766 97.9918 18.9032C97.8558 20.1496 97.7652 21.3053 97.7198 22.3704C97.6745 23.4128 97.6065 24.3079 97.5159 25.0557C97.4479 25.8035 97.2666 26.3814 96.972 26.7893C96.8134 26.9706 96.6434 27.1066 96.4622 27.1972C96.3035 27.3105 96.1562 27.3105 96.0203 27.1972Z" fill="white"/>
<path d="M116.592 24.6138C116.366 24.6591 116.116 24.6478 115.844 24.5798C115.572 24.5345 115.346 24.3645 115.165 24.07C114.983 23.7754 114.927 23.2881 114.995 22.6083C115.063 21.9285 115.312 20.9994 115.742 19.821C115.81 19.617 115.946 19.2091 116.15 18.5973C116.377 17.9628 116.626 17.2603 116.898 16.4898C117.17 15.7193 117.431 15.0055 117.68 14.3483C117.952 13.6911 118.167 13.2379 118.326 12.9886C118.416 12.7847 118.462 12.6147 118.462 12.4788C118.484 12.3428 118.496 12.2295 118.496 12.1388C118.496 12.0255 118.541 11.8782 118.632 11.6969C118.745 11.493 118.847 11.289 118.938 11.0851C119.051 10.8585 119.142 10.6545 119.21 10.4732C119.3 10.2693 119.346 10.0993 119.346 9.96337C119.346 9.96337 119.402 9.77075 119.515 9.38551C119.629 8.97761 119.776 8.51305 119.957 7.99184C120.139 7.47064 120.343 7.04007 120.569 6.70016C120.773 6.17895 120.966 5.72573 121.147 5.34049C121.328 4.95525 121.419 4.69464 121.419 4.55867C121.419 4.51335 121.17 4.49069 120.671 4.49069C120.173 4.49069 119.572 4.51335 118.87 4.55867C118.167 4.58134 117.51 4.61533 116.898 4.66065C116.286 4.70597 115.856 4.76263 115.606 4.83061C115.402 4.87593 115.221 4.92125 115.063 4.96658C114.904 4.98924 114.802 4.98924 114.757 4.96658C114.666 4.92125 114.553 4.79662 114.417 4.59267C114.303 4.38872 114.235 4.16211 114.213 3.91283C114.213 3.6409 114.337 3.43695 114.587 3.30098C114.995 3.05171 115.357 2.90441 115.674 2.85909C116.014 2.81376 116.377 2.7911 116.762 2.7911C117.17 2.76844 117.657 2.72312 118.224 2.65514C118.745 2.65514 119.198 2.63247 119.583 2.58715C119.969 2.51917 120.207 2.48518 120.297 2.48518C120.524 2.48518 120.796 2.43985 121.113 2.34921C121.453 2.25856 121.838 2.21324 122.269 2.21324C122.563 2.21324 122.858 2.19058 123.153 2.14526C123.447 2.07728 123.708 2.04328 123.934 2.04328C124.048 2.04328 124.32 2.04328 124.75 2.04328C125.181 2.04328 125.611 2.04328 126.042 2.04328C126.359 2.04328 126.79 1.99796 127.334 1.90732C127.877 1.81667 128.319 1.72603 128.659 1.63538C129.702 1.40877 130.506 1.35212 131.073 1.46542C131.662 1.57873 132.058 1.91865 132.262 2.48518C132.353 2.98372 131.99 3.33497 131.175 3.53892C130.382 3.72021 128.977 3.86751 126.96 3.98082C125.985 4.07146 125.317 4.13944 124.954 4.18477C124.592 4.23009 124.41 4.35472 124.41 4.55867C124.41 4.69464 124.354 4.81928 124.24 4.93259C124.15 5.02323 124.059 5.12521 123.968 5.23851C123.878 5.28383 123.73 5.49911 123.527 5.88436C123.345 6.26959 123.164 6.71149 122.983 7.21003C122.801 7.70858 122.643 8.17313 122.507 8.6037C122.371 9.0116 122.303 9.2722 122.303 9.38551C122.303 9.38551 122.257 9.46482 122.167 9.62345C122.099 9.75942 122.065 9.87272 122.065 9.96337C121.974 10.19 121.85 10.4506 121.691 10.7452C121.555 11.0398 121.43 11.3004 121.317 11.527C120.977 12.4334 120.694 13.1586 120.467 13.7025C120.263 14.2463 120.093 14.6769 119.957 14.9942C119.844 15.2887 119.742 15.5494 119.651 15.776C119.561 16.0706 119.414 16.5691 119.21 17.2716C119.006 17.9741 118.79 18.5973 118.564 19.1411C118.45 19.2998 118.348 19.4131 118.258 19.4811C118.19 19.5264 118.156 19.6397 118.156 19.821C118.156 19.8436 118.11 20.0249 118.02 20.3649C117.929 20.7048 117.805 21.1127 117.646 21.5886C117.51 22.0418 117.363 22.5063 117.204 22.9822C117.068 23.4354 116.943 23.8207 116.83 24.1379C116.717 24.4552 116.638 24.6138 116.592 24.6138Z" fill="white"/>
<path d="M131.368 22.6083C130.892 23.0162 130.337 23.2542 129.703 23.3221C129.091 23.3901 128.49 23.2995 127.901 23.0502C127.312 22.7783 126.825 22.3704 126.439 21.8265C126.054 21.328 125.805 20.7614 125.692 20.1269C125.578 19.4697 125.567 18.6199 125.658 17.5775C125.726 16.6937 126.009 15.81 126.507 14.9262C127.006 14.0197 127.606 13.2152 128.309 12.5128C129.034 11.8103 129.748 11.323 130.45 11.0511C130.79 10.8245 131.074 10.7225 131.3 10.7452C131.55 10.7452 131.923 10.7678 132.422 10.8132C132.943 10.8811 133.328 10.9831 133.578 11.1191C133.85 11.2551 134.065 11.4363 134.224 11.663C134.563 12.0029 134.79 12.3428 134.903 12.6827C135.017 13 135.073 13.3172 135.073 13.6345C134.983 14.133 134.643 14.7449 134.054 15.47C133.487 16.1725 132.739 16.7504 131.81 17.2036C131.312 17.3622 130.768 17.4302 130.179 17.4076C129.589 17.3849 129.102 17.2376 128.717 16.9657C128.286 16.7844 128.003 16.8184 127.867 17.0676C127.731 17.2943 127.606 17.8608 127.493 18.7672C127.403 19.6284 127.471 20.2629 127.697 20.6708C127.924 21.056 128.23 21.2826 128.615 21.3506C129.068 21.4413 129.419 21.5092 129.669 21.5546C129.941 21.5772 130.269 21.4753 130.654 21.2486C131.017 21.022 131.244 20.8974 131.334 20.8747C131.425 20.8294 131.493 20.7841 131.538 20.7388C131.606 20.6708 131.753 20.5235 131.98 20.2969C132.139 20.1382 132.263 20.0249 132.354 19.957C132.445 19.8663 132.547 19.821 132.66 19.821C132.773 19.821 132.875 19.8776 132.966 19.9909C133.057 20.0816 133.147 20.1496 133.238 20.1949C133.464 20.1949 133.51 20.3309 133.374 20.6028C133.26 20.8747 133.023 21.2033 132.66 21.5886C132.297 21.9511 131.867 22.2911 131.368 22.6083ZM131.334 15.4021C131.584 15.2887 131.844 15.1301 132.116 14.9262C132.388 14.6996 132.615 14.4616 132.796 14.2123C133 13.9404 133.102 13.7138 133.102 13.5325C133.102 13.2152 132.955 12.9546 132.66 12.7507C132.365 12.5241 131.923 12.4901 131.334 12.6487C131.085 12.7167 130.802 12.8867 130.484 13.1586C130.167 13.4079 129.861 13.6911 129.567 14.0084C129.295 14.3256 129.068 14.6089 128.887 14.8582C128.728 15.1075 128.672 15.2548 128.717 15.3001C128.785 15.4134 128.977 15.504 129.295 15.572C129.612 15.6173 129.963 15.6287 130.349 15.606C130.756 15.5833 131.085 15.5154 131.334 15.4021Z" fill="white"/>
<path d="M139.329 22.8123C139.148 22.8576 138.91 22.8802 138.615 22.8802C138.321 22.8576 138.06 22.8236 137.833 22.7783C137.629 22.7103 137.527 22.6423 137.527 22.5743C137.527 22.461 137.471 22.4044 137.357 22.4044C137.357 22.4044 137.301 22.359 137.187 22.2684C137.097 22.1777 136.95 22.0871 136.746 21.9965C136.542 21.6792 136.44 21.3393 136.44 20.9767C136.44 20.5915 136.542 19.9909 136.746 19.1751C136.814 18.6086 137.029 17.9514 137.391 17.2036C137.777 16.4331 138.241 15.6513 138.785 14.8582C139.329 14.065 139.896 13.3512 140.485 12.7167C141.097 12.0822 141.652 11.6176 142.15 11.323C142.468 11.0058 142.853 10.8358 143.306 10.8132C143.759 10.7905 144.19 10.8925 144.598 11.1191C144.824 11.2324 145.051 11.4137 145.278 11.663C145.504 11.9122 145.719 12.1842 145.923 12.4788C146.127 12.7734 146.297 13.068 146.433 13.3625C146.501 13.6118 146.535 13.8384 146.535 14.0424C146.558 14.2237 146.558 14.4503 146.535 14.7222C146.535 14.9942 146.501 15.4021 146.433 15.9459C146.32 16.3538 146.218 16.8524 146.127 17.4416C146.059 18.0308 146.025 18.5406 146.025 18.9712C145.98 19.4018 146.025 19.7077 146.161 19.889C146.32 20.0703 146.547 20.0816 146.841 19.923C147.113 19.787 147.374 19.7303 147.623 19.753C147.872 19.753 148.065 19.821 148.201 19.957C148.359 20.0929 148.439 20.2969 148.439 20.5688C148.439 20.8407 148.303 21.124 148.031 21.4186C147.782 21.6905 147.464 21.9285 147.079 22.1324C146.717 22.3137 146.365 22.4044 146.025 22.4044C145.776 22.4044 145.538 22.2571 145.312 21.9625C145.085 21.6452 144.881 21.2713 144.7 20.8407C144.541 20.3875 144.394 19.957 144.258 19.5491L144.054 18.7672L142.592 20.1609C142.298 20.4782 142.003 20.7728 141.708 21.0447C141.436 21.294 141.266 21.4753 141.199 21.5886C141.085 21.7925 140.87 21.9965 140.553 22.2004C140.258 22.4044 139.85 22.6083 139.329 22.8123ZM139.431 20.8067C139.816 20.5801 140.258 20.2515 140.757 19.821C141.255 19.3678 141.742 18.8805 142.218 18.3593C142.694 17.8155 143.091 17.3169 143.408 16.8637C143.793 16.3425 144.088 15.8553 144.292 15.4021C144.496 14.9488 144.643 14.5183 144.734 14.1104C144.643 13.8611 144.496 13.6005 144.292 13.3286C144.088 13.034 143.907 12.8753 143.748 12.8527C143.249 12.8527 142.717 13.1699 142.15 13.8044C141.606 14.4163 141.074 15.0848 140.553 15.81C140.462 15.9233 140.337 16.1045 140.179 16.3538C140.02 16.6031 139.862 16.841 139.703 17.0676C139.567 17.2716 139.476 17.4076 139.431 17.4755C139.363 17.5662 139.227 17.8268 139.023 18.2574C138.842 18.6653 138.66 19.0845 138.479 19.5151C138.298 19.923 138.207 20.1949 138.207 20.3309C138.207 20.4668 138.219 20.6141 138.241 20.7728C138.287 20.9314 138.4 21.0334 138.581 21.0787C138.762 21.124 139.046 21.0334 139.431 20.8067Z" fill="white"/>
<path d="M159.335 26.6193C159.335 26.6193 159.301 26.5967 159.233 26.5514C159.165 26.5287 159.074 26.506 158.961 26.4834C158.87 26.4607 158.757 26.4494 158.621 26.4494C158.259 26.3587 157.998 26.1548 157.839 25.8375C157.681 25.5429 157.647 25.2143 157.737 24.8518C157.828 24.7611 157.896 24.5685 157.941 24.2739C157.987 23.9793 158.009 23.7414 158.009 23.5601C158.1 23.3788 158.157 23.2542 158.179 23.1862C158.202 23.0955 158.259 22.8689 158.349 22.5063C158.417 22.1211 158.531 21.5886 158.689 20.9087C158.87 20.2062 159.063 19.4584 159.267 18.6653C159.494 17.8721 159.709 17.113 159.913 16.3878C160.117 15.6627 160.298 15.0508 160.457 14.5523C160.638 14.0537 160.763 13.7704 160.831 13.7025C160.831 13.7025 160.831 13.6685 160.831 13.6005C160.831 13.5098 160.831 13.4192 160.831 13.3286C160.831 13.3286 160.842 13.2266 160.865 13.0226C160.91 12.796 161.023 12.5467 161.205 12.2748C161.295 12.0255 161.375 11.7536 161.442 11.459C161.51 11.1644 161.544 10.9718 161.544 10.8811C161.635 10.7678 161.76 10.4959 161.918 10.0653C162.1 9.61212 162.27 9.17023 162.428 8.73966C162.564 8.37708 162.712 7.99184 162.87 7.58394C163.051 7.17604 163.199 6.82479 163.312 6.5302C163.448 6.2356 163.516 6.0883 163.516 6.0883C163.516 5.99766 163.516 5.95234 163.516 5.95234C163.516 5.92968 163.516 5.91835 163.516 5.91835C163.607 5.8277 163.822 5.37448 164.162 4.55867C164.524 3.72021 165.012 2.64381 165.623 1.32946C165.714 1.14817 165.827 0.944217 165.963 0.717605C166.099 0.490993 166.167 0.332365 166.167 0.24172C166.281 0.0604303 166.439 -0.0188841 166.643 0.00377677C166.847 0.00377677 167.051 0.0717608 167.255 0.207729C167.482 0.343696 167.652 0.536315 167.765 0.785588L168.105 1.32946L166.881 3.77686C166.519 4.41138 166.213 4.98924 165.963 5.51045C165.737 6.03165 165.623 6.33758 165.623 6.42822C165.623 6.42822 165.555 6.60951 165.42 6.97209C165.284 7.33467 165.125 7.76523 164.944 8.26378C164.762 8.76233 164.604 9.21555 164.468 9.62345C164.218 10.3259 163.981 10.9038 163.754 11.357C163.55 11.8103 163.448 12.0822 163.448 12.1728C163.448 12.1275 163.697 12.0935 164.196 12.0709C164.694 12.0482 165.329 12.0369 166.099 12.0369C166.87 12.0369 167.652 12.0369 168.445 12.0369C169.261 12.0142 169.974 12.0029 170.586 12.0029C171.221 11.9802 171.651 11.9462 171.878 11.9009L173.646 11.7309L174.801 8.22979C174.983 7.59527 175.22 6.82479 175.515 5.91835C175.81 5.0119 176.07 4.24142 176.297 3.60691C176.659 2.56449 176.943 1.91865 177.147 1.66937C177.351 1.4201 177.589 1.29546 177.861 1.29546C177.928 1.29546 178.019 1.31813 178.132 1.36345C178.268 1.38611 178.393 1.44276 178.506 1.53341C178.642 1.60139 178.733 1.70337 178.778 1.83933C179.05 2.08861 179.175 2.37187 179.152 2.68913C179.152 3.00638 178.971 3.42562 178.608 3.94682C178.246 4.55867 177.94 5.22718 177.691 5.95234C177.464 6.65484 177.26 7.2327 177.079 7.68592C177.079 7.95785 177.045 8.18447 176.977 8.36576C176.909 8.52438 176.829 8.64902 176.739 8.73966C176.693 8.78499 176.603 8.95495 176.467 9.24954C176.331 9.54414 176.206 9.83873 176.093 10.1333C175.98 10.4279 175.923 10.6092 175.923 10.6772C175.923 10.8358 175.889 11.0284 175.821 11.2551C175.753 11.4817 175.674 11.6403 175.583 11.7309C175.538 11.8669 175.436 12.2068 175.277 12.7507C175.119 13.2946 174.937 13.9404 174.733 14.6882C174.529 15.4134 174.314 16.1272 174.087 16.8297C173.861 17.5095 173.657 18.0761 173.476 18.5293C173.476 18.6879 173.419 18.8919 173.306 19.1411C173.192 19.3678 173.136 19.5717 173.136 19.753C173.045 20.0249 172.932 20.3649 172.796 20.7728C172.66 21.1807 172.592 21.4413 172.592 21.5546C172.478 22.0758 172.354 22.6083 172.218 23.1522C172.105 23.696 172.003 24.1606 171.912 24.5458C171.844 24.9537 171.81 25.1917 171.81 25.2597C171.719 25.3503 171.583 25.3616 171.402 25.2937C171.221 25.2257 171.005 25.1464 170.756 25.0557C170.326 24.8064 170.065 24.5345 169.974 24.2399C169.906 23.968 169.997 23.5714 170.246 23.0502C170.36 22.8689 170.496 22.427 170.654 21.7245C170.836 20.9994 171.017 20.2855 171.198 19.583C171.334 19.2431 171.481 18.7899 171.64 18.2234C171.799 17.6342 171.957 17.045 172.116 16.4558C172.275 15.8439 172.41 15.3341 172.524 14.9262C172.637 14.4956 172.716 14.2577 172.762 14.2123C172.762 14.1217 172.762 14.0424 172.762 13.9744C172.762 13.9064 172.762 13.8724 172.762 13.8724C172.716 13.8271 172.433 13.7931 171.912 13.7704C171.391 13.7251 170.745 13.7138 169.974 13.7365C169.204 13.7365 168.399 13.7591 167.561 13.8044C166.745 13.8271 166.009 13.8838 165.352 13.9744C165.102 13.9744 164.819 13.9744 164.502 13.9744C164.184 13.9744 163.935 13.9744 163.754 13.9744C163.505 13.9744 163.289 13.9744 163.108 13.9744C162.949 13.9744 162.87 13.9744 162.87 13.9744C162.847 14.0424 162.768 14.2803 162.632 14.6882C162.496 15.0961 162.338 15.5947 162.156 16.1839C161.975 16.7504 161.782 17.3396 161.578 17.9514C161.397 18.5406 161.239 19.0845 161.103 19.583C160.989 20.0589 160.91 20.3988 160.865 20.6028C160.774 21.0107 160.649 21.5206 160.491 22.1324C160.355 22.7443 160.196 23.3675 160.015 24.002C159.856 24.6591 159.709 25.2257 159.573 25.7016C159.46 26.1774 159.38 26.4834 159.335 26.6193Z" fill="white"/>
<path d="M180.902 23.5941C180.607 23.6167 180.369 23.5941 180.188 23.5261C180.007 23.4354 179.78 23.3108 179.508 23.1522C179.01 22.7669 178.636 22.3817 178.387 21.9965C178.16 21.5886 178.058 21.192 178.081 20.8067C178.126 20.6028 178.126 20.4215 178.081 20.2629C178.058 20.1042 178.047 20.0249 178.047 20.0249C177.911 19.9116 177.865 19.8436 177.911 19.821C177.956 19.7757 177.99 19.7077 178.013 19.617C178.194 19.5717 178.217 19.4471 178.081 19.2431C178.013 19.0618 178.047 18.6539 178.183 18.0194C178.341 17.3622 178.545 16.7504 178.794 16.1839C178.908 15.9346 179.066 15.606 179.27 15.1981C179.497 14.7902 179.746 14.3823 180.018 13.9744C180.29 13.5438 180.539 13.2039 180.766 12.9546C181.265 12.3881 181.706 11.9689 182.092 11.6969C182.5 11.4024 182.953 11.1644 183.451 10.9831C183.905 10.8018 184.233 10.6999 184.437 10.6772C184.641 10.6545 184.924 10.7905 185.287 11.0851C185.831 11.2437 186.239 11.4703 186.511 11.7649C186.805 12.0369 187.032 12.4674 187.19 13.0566C187.372 13.7138 187.428 14.4956 187.36 15.4021C187.315 16.2858 186.93 17.4302 186.205 18.8352C185.774 19.719 185.344 20.3875 184.913 20.8407C184.505 21.294 184.007 21.7698 183.417 22.2684C182.987 22.631 182.59 22.9142 182.228 23.1182C181.865 23.3221 181.423 23.4808 180.902 23.5941ZM183.621 19.5491C184.075 18.8692 184.426 18.246 184.675 17.6795C184.947 17.0903 185.162 16.3538 185.321 15.47C185.366 15.2208 185.378 14.9148 185.355 14.5523C185.332 14.167 185.276 13.8158 185.185 13.4985C185.117 13.1813 185.015 13.0113 184.879 12.9886C184.584 12.8753 184.256 12.8753 183.893 12.9886C183.531 13.0793 183.134 13.3512 182.704 13.8044C182.318 14.2577 181.967 14.7675 181.65 15.3341C181.355 15.9006 181.083 16.5238 180.834 17.2036C180.585 17.8835 180.347 18.6086 180.12 19.3791C179.894 20.2402 179.905 20.8974 180.154 21.3506C180.426 21.8038 180.868 21.9171 181.48 21.6905C182.092 21.4413 182.806 20.7274 183.621 19.5491Z" fill="white"/>
<path d="M197.576 23.73C197.35 23.5034 197.123 23.1975 196.896 22.8123C196.67 22.4044 196.489 21.9398 196.353 21.4186C196.307 21.2373 196.285 20.988 196.285 20.6708C196.307 20.3535 196.307 20.1269 196.285 19.9909C196.217 20.1496 196.103 20.3195 195.945 20.5008C195.809 20.6594 195.673 20.7954 195.537 20.9087C195.446 20.9994 195.242 21.1807 194.925 21.4526C194.608 21.7019 194.29 21.9058 193.973 22.0644C193.225 22.5403 192.602 22.8009 192.104 22.8463C191.628 22.8916 191.174 22.6423 190.744 22.0984C190.381 21.8038 190.121 21.4753 189.962 21.1127C189.826 20.7501 189.826 20.2515 189.962 19.617C190.007 18.8239 190.121 18.0534 190.302 17.3056C190.483 16.5351 190.857 15.5154 191.424 14.2463C191.9 13.3172 192.262 12.6374 192.511 12.2068C192.761 11.7536 192.919 11.4817 192.987 11.391C193.327 11.2777 193.611 11.289 193.837 11.425C194.064 11.5383 194.2 11.7536 194.245 12.0709C194.381 12.2975 194.358 12.6827 194.177 13.2266C194.018 13.7704 193.735 14.439 193.327 15.2321C193.01 16.0026 192.715 16.7731 192.444 17.5435C192.194 18.314 192.047 18.9712 192.002 19.5151C191.956 20.0589 192.092 20.3875 192.41 20.5008C192.613 20.6141 192.965 20.5801 193.463 20.3988C193.984 20.2176 194.562 19.7643 195.197 19.0392C195.854 18.314 196.489 17.2149 197.1 15.742C197.282 15.2887 197.418 14.8922 197.508 14.5523C197.599 14.1897 197.656 13.7931 197.678 13.3625C197.633 13.0906 197.644 12.8527 197.712 12.6487C197.803 12.4221 197.984 12.2295 198.256 12.0709C198.347 11.9576 198.471 11.8556 198.63 11.7649C198.789 11.6516 198.891 11.6516 198.936 11.7649L199.48 11.7309C199.57 11.7083 199.627 11.7649 199.65 11.9009C199.695 12.0142 199.774 12.1162 199.888 12.2068C200.137 12.4108 200.205 12.8527 200.092 13.5325C199.978 14.2123 199.661 15.1641 199.14 16.3878C198.709 17.3169 198.415 18.0194 198.256 18.4953C198.12 18.9712 198.041 19.4357 198.018 19.889C198.018 20.2969 198.097 20.6821 198.256 21.0447C198.415 21.4073 198.664 21.7359 199.004 22.0305C199.253 22.1891 199.389 22.3704 199.412 22.5743C199.457 22.7783 199.468 23.0162 199.446 23.2881C199.4 23.4921 199.265 23.6621 199.038 23.798C198.834 23.9113 198.596 23.968 198.324 23.968C198.052 23.968 197.803 23.8887 197.576 23.73Z" fill="white"/>
<path d="M204.107 23.934C203.676 23.7527 203.268 23.5148 202.883 23.2202C202.498 22.9029 202.248 22.6423 202.135 22.4384C202.135 22.2344 202.169 22.0984 202.237 22.0305C202.305 21.9398 202.498 21.9058 202.815 21.9285C203.155 21.9285 203.699 21.9738 204.447 22.0644C204.719 22.0644 205.058 22.0418 205.466 21.9965C205.874 21.9511 206.248 21.8832 206.588 21.7925C206.951 21.7019 207.155 21.5886 207.2 21.4526C207.313 21.4526 207.336 21.4186 207.268 21.3506C207.2 21.26 207.121 21.1693 207.03 21.0787C206.939 21.0787 206.837 21.0447 206.724 20.9767C206.611 20.8861 206.509 20.8407 206.418 20.8407C206.418 20.7274 206.305 20.6028 206.078 20.4668C205.874 20.3082 205.659 20.1836 205.432 20.0929C204.934 19.685 204.503 19.3224 204.141 19.0052C203.778 18.6653 203.642 18.4387 203.733 18.3253C203.733 18.2347 203.733 18.1894 203.733 18.1894C203.733 18.1667 203.733 18.1554 203.733 18.1554C203.574 18.1554 203.393 17.9288 203.189 17.4755C203.008 17.0223 202.917 16.6144 202.917 16.2518C202.917 15.9799 202.996 15.64 203.155 15.2321C203.314 14.8015 203.529 14.3596 203.801 13.9064C204.073 13.4532 204.356 13.0793 204.651 12.7847C205.058 12.3994 205.568 11.9915 206.18 11.561C206.792 11.1078 207.393 10.7112 207.982 10.3713C208.594 10.0087 209.103 9.77075 209.511 9.65744C209.919 9.49881 210.293 9.4195 210.633 9.4195C210.996 9.4195 211.313 9.49881 211.585 9.65744C211.811 9.77075 212.015 9.94071 212.197 10.1673C212.401 10.3713 212.571 10.5866 212.707 10.8132C212.865 11.0171 212.967 11.1984 213.013 11.357C213.013 11.629 212.99 11.9349 212.945 12.2748C212.899 12.5921 212.831 12.8753 212.741 13.1246C212.673 13.3739 212.559 13.4985 212.401 13.4985C212.401 13.4985 212.367 13.5098 212.299 13.5325C212.253 13.5325 212.231 13.5892 212.231 13.7025C212.231 13.9291 212.061 14.1897 211.721 14.4843C211.29 14.7789 210.916 14.9602 210.599 15.0281C210.282 15.0735 210.089 14.9488 210.021 14.6542C209.953 14.5636 209.908 14.4843 209.885 14.4163C209.863 14.3483 209.806 14.3143 209.715 14.3143C209.715 14.3143 209.681 14.2803 209.613 14.2123C209.545 14.1444 209.511 14.031 209.511 13.8724C209.511 13.7818 209.545 13.7025 209.613 13.6345C209.681 13.5438 209.715 13.4985 209.715 13.4985C209.829 13.4985 209.976 13.3739 210.157 13.1246C210.339 12.8527 210.497 12.5694 210.633 12.2748C210.792 11.9576 210.871 11.7423 210.871 11.629C210.871 11.493 210.848 11.4137 210.803 11.391C210.78 11.3684 210.678 11.357 210.497 11.357C210.18 11.493 209.795 11.6743 209.341 11.9009C208.888 12.1275 208.458 12.3541 208.05 12.5807C207.664 12.7847 207.381 12.9773 207.2 13.1586C207.109 13.3172 207.053 13.4192 207.03 13.4645C207.007 13.4872 206.951 13.4985 206.86 13.4985C206.86 13.4079 206.781 13.4532 206.622 13.6345C206.486 13.7931 206.305 14.0197 206.078 14.3143C205.874 14.6089 205.67 14.9035 205.466 15.1981C205.285 15.47 205.149 15.674 205.058 15.81C205.013 15.8553 204.956 15.9912 204.888 16.2179C204.843 16.4218 204.82 16.6144 204.82 16.7957C204.73 17.0676 204.741 17.2603 204.855 17.3736C204.968 17.4642 205.217 17.6682 205.602 17.9854C206.395 18.5746 207.019 19.0618 207.472 19.4471C207.925 19.8323 208.265 20.1496 208.492 20.3988C208.718 20.6481 208.854 20.8747 208.9 21.0787C209.307 21.7585 209.432 22.2797 209.273 22.6423C209.115 23.0049 208.73 23.3221 208.118 23.5941C207.891 23.7074 207.517 23.798 206.996 23.866C206.475 23.934 205.942 23.968 205.398 23.968C204.854 23.9906 204.424 23.9793 204.107 23.934Z" fill="white"/>
<path d="M216.881 23.9C215.884 23.9 215.069 23.5261 214.434 22.7783C213.8 22.0078 213.494 21.056 213.516 19.923C213.562 19.1072 213.72 18.2347 213.992 17.3056C214.287 16.3538 214.672 15.4474 215.148 14.5862C215.624 13.7025 216.145 12.932 216.712 12.2748C217.278 11.6176 217.867 11.1531 218.479 10.8811C218.706 10.7678 218.944 10.6772 219.193 10.6092C219.465 10.5412 219.737 10.5072 220.009 10.5072C220.258 10.5072 220.519 10.5526 220.791 10.6432C221.062 10.7112 221.289 10.7905 221.47 10.8811C221.856 11.0398 222.15 11.2324 222.354 11.459C222.558 11.6856 222.739 12.0369 222.898 12.5128C222.966 12.9433 223 13.2492 223 13.4305C223 13.6118 222.943 13.8838 222.83 14.2463C222.558 15.0621 222.207 15.7646 221.776 16.3538C221.346 16.943 220.768 17.4416 220.043 17.8495C219.861 17.9628 219.646 18.0534 219.397 18.1214C219.17 18.1667 218.932 18.1894 218.683 18.1894C218.23 18.1894 217.788 18.1101 217.357 17.9514C216.949 17.7701 216.621 17.5095 216.372 17.1696L216.134 16.8977L216.032 17.1696C215.805 17.7815 215.624 18.348 215.488 18.8692C215.374 19.3904 215.318 19.8663 215.318 20.2969C215.318 20.5688 215.341 20.8294 215.386 21.0787C215.454 21.328 215.544 21.5432 215.658 21.7245C215.748 21.8605 215.896 21.9625 216.1 22.0305C216.326 22.0758 216.564 22.0984 216.813 22.0984C216.972 22.0984 217.131 22.0984 217.289 22.0984C217.471 22.0758 217.641 22.0305 217.799 21.9625C218.185 21.8265 218.49 21.6792 218.717 21.5206C218.966 21.3619 219.216 21.192 219.465 21.0107L219.601 20.9427H219.567C219.839 20.8067 220.077 20.6708 220.281 20.5348C220.507 20.3988 220.621 20.3309 220.621 20.3309C220.711 20.3309 220.802 20.2742 220.893 20.1609C221.074 20.0703 221.3 20.1042 221.572 20.2629C221.867 20.4215 222.014 20.6255 222.014 20.8747C221.992 20.988 221.89 21.1693 221.708 21.4186C221.527 21.6452 221.323 21.8605 221.096 22.0644C220.893 22.2684 220.723 22.3817 220.587 22.4044C220.564 22.427 220.485 22.4723 220.349 22.5403C220.213 22.5856 220.122 22.631 220.077 22.6763H220.111C219.907 22.9482 219.703 23.0842 219.499 23.0842H219.227C219.136 23.2428 218.842 23.4241 218.343 23.6281C217.845 23.8094 217.357 23.9 216.881 23.9ZM218.411 16.4218C218.819 16.4218 219.17 16.3085 219.465 16.0819C219.782 15.8326 220.054 15.5607 220.281 15.2661C220.734 14.6542 220.994 14.065 221.062 13.4985C221.153 12.9093 221.085 12.5014 220.859 12.2748C220.723 12.2068 220.598 12.1728 220.485 12.1728C220.394 12.1502 220.201 12.1842 219.907 12.2748C219.703 12.3201 219.42 12.4901 219.057 12.7847C218.694 13.0793 218.332 13.4079 217.969 13.7704C217.629 14.133 217.369 14.439 217.187 14.6882L216.746 15.4021C216.927 15.3341 217.097 15.3001 217.255 15.3001C217.437 15.2774 217.539 15.2887 217.561 15.3341C217.561 15.538 217.595 15.7306 217.663 15.9119C217.754 16.0706 217.856 16.1952 217.969 16.2858C218.105 16.3765 218.252 16.4218 218.411 16.4218Z" fill="white"/>
</svg>
